<?xml version="1.0" encoding="utf-8"?>
<!-- Generator: Adobe Illustrator 20.1.0, SVG Export Plug-In . SVG Version: 6.00 Build 0)  -->
<svg version="1.1" id="Layer_1" xmlns="http://www.w3.org/2000/svg" xmlns:xlink="http://www.w3.org/1999/xlink" x="0px" y="0px"
	 viewBox="0 0 60 60" style="enable-background:new 0 0 60 60;" xml:space="preserve">
<style type="text/css">
	.st0{fill:#F5156F;}
	.st1{fill:#FFFFFF;}
	.st2{font-family:arial,sans-serif;}
	.st3{font-size:14px;}
</style>
<path class="st0" d="M29.9,50.2c0.5-0.6,2.8-3.6,3.3-4.2c3.4-4.4,4.5-5.8,5.9-7.6c0.6-0.8,1.7-2.1,3-4c1-1.4,1.4-2.2,1.6-2.5
	c0.5-0.9,1.2-2.2,1.6-4.1c0.2-1,0.3-1.8,0.3-2.2c0-0.4,0.1-2-0.3-4c-0.2-1-0.6-3.4-2.2-5.9c-2.4-3.7-5.6-5.3-6.2-5.6
	c-3.1-1.5-5.8-1.4-7.1-1.4c-1.4,0-4.8,0.2-8.3,2.5c-3.1,2-4.7,4.7-5.4,6.2c-1.9,3.8-1.7,7.4-1.4,9.4c0.1,0.5,0.4,2.4,1.4,4.6
	c0.5,1.1,1.1,1.9,1.8,3c1.8,2.7,2.9,3.9,4.9,6.5c2.1,2.8,2.2,3.1,4.3,5.8C28.2,48.1,29.3,49.4,29.9,50.2z"/>
</svg>
